<?xml version="1.0" encoding="UTF-8"?> <svg xmlns="http://www.w3.org/2000/svg" xmlns:xlink="http://www.w3.org/1999/xlink" version="1.1" id="Ebene_1" x="0px" y="0px" viewBox="0 0 333.2 88.2" style="enable-background:new 0 0 333.2 88.2;" xml:space="preserve"> <style type="text/css"> .st0{fill:#F2B724;} .st1{fill:#008783;} </style> <g id="a"> </g> <g> <path class="st0" d="M73.8,11.5L71,14.6C64.2,8.4,55.6,4.8,46.5,4.3l-0.3,0V42l-2.1,2.1L41.9,42V4.2C32.6,4.8,23.8,8.5,17,14.8 l-2.8-3.1C22.3,4.2,32.9,0,44.1,0C55.1,0,65.6,4.1,73.8,11.5z"></path> </g> <path class="st1" d="M330.4,51.9c-1.5,0-2.7,1.2-2.7,2.8c0,1.5,1.2,2.7,2.7,2.7c1.6,0,2.8-1.2,2.8-2.7 C333.2,53.1,332,51.9,330.4,51.9z"></path> <g> <g> <g> <g> <path class="st1" d="M274,52.9c-0.8-0.6-1.2-1.5-1.2-2.9V38.8h6.8v-3.5h-6.8v-5.7H269v5.7h-4.4v3.5h4.4v11.3 c0,2.7,0.8,4.7,2.4,5.9c1.1,0.9,2.7,1.3,4.5,1.3c1.1,0,2.4-0.2,3.8-0.5l0.2-0.1v-3.9l-0.4,0.1C276.9,53.7,275.1,53.7,274,52.9z"></path> <path class="st1" d="M253.7,34.9c-5.4,0-9.1,2.7-9.4,6.7v0.3h3.9v-0.2c0.6-3,4.1-3.3,5.6-3.3c2.7,0,5.8,1.1,5.8,4.1v1.3h-6.5 c-3.5,0-6.2,0.8-7.7,2.4c-1.1,1.2-1.7,2.7-1.7,4.5c0.1,4.8,4.4,6.5,8.1,6.5c4.3,0,6.8-2.5,7.9-3.9v3.6h3.8V42 C263.5,37.9,259.4,34.9,253.7,34.9z M259.7,46.8c-0.2,3.7-3.7,7-7.6,7c-1.9,0-4.1-0.8-4.3-3c-0.1-0.6,0-1.5,0.7-2.3 c1-1.1,2.8-1.7,5.3-1.7H259.7z"></path> <path class="st1" d="M315.2,34.9c-2.8,0-5.3,1.2-6.9,3.3v-9.7h-4V57h4V45.8c0-4.2,2.7-7.2,6.3-7.2c2.9,0,5.8,1.9,5.8,6.3v12h4 V43.8C324.5,38,319.8,34.9,315.2,34.9z"></path> <path class="st1" d="M298.1,49.3c-1.2,2.6-3.6,4.2-6.4,4.2c-4,0-7.3-3.4-7.3-7.5s3.3-7.5,7.3-7.5c2.8,0,5.2,1.6,6.4,4.3l0.1,0.2 l3.8-0.9l-0.1-0.3c-1.6-4.2-5.6-7-10.2-7c-6.1,0-11.1,5-11.1,11.2s5,11.2,11.1,11.2c4.5,0,8.5-2.7,10.2-7l0.1-0.3l-3.8-0.9 L298.1,49.3z"></path> <polygon class="st1" points="229.5,28.5 223.4,53.8 217.7,28.7 217.7,28.5 211.4,28.5 204.8,56.9 209.1,56.9 214.4,31.9 220.3,56.9 226.5,56.9 232.5,31.8 237.8,56.7 237.9,56.9 242.1,56.9 235.7,28.5 "></polygon> </g> </g> </g> </g> <path class="st1" d="M76.7,14.5l-3.1,2.8C80.3,24.6,84,34.1,84,44.1c0,8.7-2.8,16.8-7.5,23.3l0,0h0c0,0,0,0,0,0L65.8,24h-6.4 L47,67.3l-1.1,3.8l-2,6.8L42,71.1l-1-3.7L28.8,24h-6.5L11.7,67.3h-0.1C7,60.7,4.2,52.7,4.2,44.1c0-9.8,3.6-19.1,10-26.4l-3.1-2.8 C3.9,22.9,0,33.3,0,44.1c0,24.3,19.8,44.1,44.1,44.1c24.3,0,44.1-19.8,44.1-44.1C88.2,33.1,84.1,22.6,76.7,14.5z M73.3,71.2 C66,79,55.6,84,44.1,84C32.5,84,22,79,14.7,71h0l0.9-3.7l9.9-40.7l11.5,40.7l1.1,3.7l2.6,9.1h6.4l2.6-9.1l1.1-3.8l11.7-40.8 l9.9,40.8L73.3,71.2L73.3,71.2z"></path> <g> <path class="st0" d="M127.6,34.9c-6.1,0-11.1,5-11.1,11.2s5,11.2,11.1,11.2c4.3,0,8.3-2.4,10.1-5.9l0.2-0.3l-3.6-0.8l-0.1,0.2 c-1.4,2-3.9,3.3-6.5,3.3c-3.7,0-6.6-2.5-7.1-6h18v-0.2c0.2-0.8,0.1-1.8,0-2.8C137.7,39,133,34.9,127.6,34.9z M120.5,44.3 c0.6-3.4,3.5-5.8,7.1-5.8c3.5,0,6.4,2.4,7,5.8H120.5z"></path> <path class="st0" d="M168,35c-3.4,0-6,1.3-7.9,3.9L160,39v-0.2c-0.7-1.2-1.6-2.2-2.9-2.8c-1.2-0.7-2.6-1-4.1-1c-2.9,0-5.1,1-6.7,3 l-0.2,0.2v-2.6h-4.3v21.1h4.3V46.2c0-2.4,0.5-4.2,1.5-5.4s2.5-1.9,4.2-1.9c1.4,0,2.6,0.5,3.5,1.4s1.4,2.2,1.4,3.8v12.6h4.3V46.2 c0-2.4,0.5-4.2,1.6-5.4c1-1.2,2.5-1.9,4.3-1.9c1.4,0,2.6,0.5,3.5,1.4s1.4,2.2,1.4,3.8v12.6h4.2V43.2c0-2.4-0.8-4.4-2.3-5.9 C172.1,35.7,170.2,35,168,35z"></path> <polygon class="st0" points="122.6,28.6 98.2,28.6 98.2,32.5 108.1,32.5 108.1,56.8 112.5,56.8 112.5,32.5 122.6,32.5 "></polygon> <path class="st0" d="M199.6,38.1c-2.1-2.1-4.5-3.1-7.4-3.1c-3.2,0-5.8,1.1-7.7,3.2l-0.2,0.2v-2.8H180V67h4.3V53.9l0.2,0.2 c1.9,2.1,4.4,3.2,7.6,3.2c2.8,0,5.3-1.1,7.4-3.1c2-2.1,3.1-4.8,3.1-8C202.7,42.9,201.7,40.2,199.6,38.1z M196.6,51.5 c-1.3,1.3-3,2-5,2c-1.9,0-3.5-0.7-5-2.1c-1.4-1.4-2.1-3.2-2.1-5.3c0-2.2,0.7-4,2.1-5.3c1.4-1.4,3.1-2.1,5-2.1c2,0,3.7,0.7,5,2 s2,3.1,2,5.4C198.6,48.3,197.9,50.1,196.6,51.5z"></path> </g> <path class="st0" d="M42.2,4.2L42.2,4.2z"></path> </svg> 